PathFileType	4	(X/Y/Z)	/Users/visionmauri/4_1_1_f_Sports2D/4_1_1_f_Sports2D_m_person00.trc
DataRate	CameraRate	NumFrames	NumMarkers	Units	OrigDataRate	OrigDataStartFrame	OrigNumFrames
30.0	30.0	9	22	m	30.0	88	355
Frame#	Time	Hip			RHip			RKnee			RAnkle			RBigToe			RSmallToe			RHeel			LHip			LKnee			LAnkle			LBigToe			LSmallToe			LHeel			Neck			Head			Nose			RShoulder			RElbow			RWrist			LShoulder			LElbow			LWrist			
		X1	Y1	Z1	X2	Y2	Z2	X3	Y3	Z3	X4	Y4	Z4	X5	Y5	Z5	X6	Y6	Z6	X7	Y7	Z7	X8	Y8	Z8	X9	Y9	Z9	X10	Y10	Z10	X11	Y11	Z11	X12	Y12	Z12	X13	Y13	Z13	X14	Y14	Z14	X15	Y15	Z15	X16	Y16	Z16	X17	Y17	Z17	X18	Y18	Z18	X19	Y19	Z19	X20	Y20	Z20	X21	Y21	Z21	X22	Y22	Z22
88	2.9416195856873824	1.3045712820094852	0.9375245669620363	0.0301	1.3947564664251784	0.9045445928949134	0.0301	1.3373329292565812	0.572619342246064	0.129	1.321474874898273	0.5534476566757421	0.023	1.3191246662359886	0.5857188285764058	0.2179	1.3498092304596288	0.5414305645146847	0.1804	1.3097892207862396	0.5650018819150979	-0.0119	1.2096083359452416	0.9560382711423071	0.0301	1.0950440719889274	0.6046058836325322	0.129	0.993714243040624	0.24986511338991244	0.023	0.9881314447607957	0.17883784253650292	0.2179	0.9348927245439235	0.18496299439130318	0.1804	0.979847545231257	0.18201690551724622	-0.0119	1.5146581524190565	1.378199190893215	0.0008	1.625337744974136	1.5345339044297919	0.0655	1.580263874453174	1.4365635876630356	0.1076	1.6425006017614483	1.2689119361914387	-0.01275	1.663604050894942	0.9943781282296154	0.0702	1.6513344396189038	0.8296778108899947	0.1076	1.3386294579608933	1.3929621652536233	-0.01275	1.150495990768085	1.2033430487763979	0.0702	1.043538170363347	1.0168972687106692	0.1076
89	2.9750470809792846	1.3027651876930468	0.9349917038132517	0.0301	1.3918116266682867	0.9011119666511017	0.0301	1.337792734624417	0.5714909681580411	0.129	1.3201187738311952	0.5568173492250112	0.023	1.31450478712815	0.5824367541321684	0.2179	1.3476330851279072	0.5436779371815496	0.1804	1.3068356430036057	0.5671513809455028	-0.0119	1.208582950953726	0.9530271448608251	0.0301	1.0971341508966108	0.6001365332871647	0.129	0.9911443142334491	0.2565223854957534	0.023	0.9970664643984796	0.18131700681052432	0.2179	0.9408169097284974	0.18881857370185184	0.1804	0.9733480908057551	0.18790895660098594	-0.0119	1.512192142697879	1.3778990576670815	0.0008	1.6212527339678662	1.5324500933002074	0.0655	1.5759608329703194	1.4376098329793574	0.1076	1.6418528545684803	1.2683984407721367	-0.01275	1.6599593337712828	0.9950017725489082	0.0702	1.6515447939946557	0.8305478663284294	0.1076	1.3343444941087306	1.390707694280556	-0.01275	1.1442562312586058	1.2048750908817258	0.0702	1.0431417561453094	1.017951069366466	0.1076
90	3.0084745762711864	1.3011477181631017	0.9293415987813359	0.0301	1.3894133920664569	0.8962080970659523	0.0301	1.337270195369799	0.570277712921826	0.129	1.3204965419289318	0.5626318660156866	0.023	1.3137667440049934	0.5808407413532591	0.2179	1.3466415210038143	0.5463038735710961	0.1804	1.303273453827784	0.5658019189251637	-0.0119	1.206072874828065	0.9492382407126401	0.0301	1.0991715592753901	0.5942637978052564	0.129	0.99128735639551	0.2650009720720224	0.023	1.00306647450343	0.18691985654895388	0.2179	0.9452324775761879	0.19688559066772346	0.1804	0.9704117666129329	0.1955766960641014	-0.0119	1.5085195183320335	1.3780267628313447	0.0008	1.6176116174195754	1.5301207172186397	0.0655	1.5725226671181896	1.4379364103834262	0.1076	1.637592073994503	1.268043412534758	-0.01275	1.6543146889638682	0.9978831944445702	0.0702	1.650631543951015	0.8309377262008966	0.1076	1.327325190563708	1.3901431936317548	-0.01275	1.1384889051829432	1.2079308992259643	0.0702	1.0427238983209395	1.019146857171317	0.1076
91	3.0419020715630887	1.2999986761804128	0.9250194549412328	0.0301	1.3888467843929584	0.8943074851777891	0.0301	1.3365762356653623	0.5706542886407765	0.129	1.3214001593340978	0.5640007929134933	0.023	1.3131851702889925	0.575275765486389	0.2179	1.3455629973931273	0.5494406335070926	0.1804	1.3018226092944063	0.5641885508110396	-0.0119	1.2039723533651576	0.9473007996217797	0.0301	1.1031621303344326	0.591764017535716	0.129	0.9945542746294045	0.27073008107966967	0.023	1.0065658039273913	0.19328191185802857	0.2179	0.9483212195318023	0.20470972203582882	0.1804	0.9729581110275073	0.20089767635930256	-0.0119	1.5022798928327243	1.3764735974783062	0.0008	1.6149561736596267	1.5273959576913396	0.0655	1.570558593885353	1.4344085855647861	0.1076	1.6292554250965388	1.2675619339279978	-0.01275	1.6466521460763142	1.0011770894093657	0.0702	1.6477236870776826	0.8309825727461208	0.1076	1.3190072864356128	1.389864406515298	-0.01275	1.133409598894121	1.2116863551549788	0.0702	1.041330669740899	1.0201691343091543	0.1076
92	3.075329566854991	1.2985512656164082	0.9244032204622915	0.0301	1.388776390365554	0.8960033801232159	0.0301	1.3363447029072826	0.571523297474151	0.129	1.3218393029637445	0.5632031844054699	0.023	1.312644786021439	0.5686205946438821	0.2179	1.3444654892471253	0.551963250460946	0.1804	1.3019057322526724	0.5668048323900053	-0.0119	1.2031470752235838	0.9471233984520565	0.0301	1.1074802196968043	0.5922730190726028	0.129	0.9992606405614357	0.2719774605005398	0.023	1.0100136666291155	0.1986862197302479	0.2179	0.9520701881441179	0.20952902340161506	0.1804	0.978437112823393	0.20331596970798194	-0.0119	1.495246459341632	1.3751446679472068	0.0008	1.6108520387834382	1.525240400896655	0.0655	1.568444233443005	1.4296300554373034	0.1076	1.619852275026857	1.267957383406071	-0.01275	1.6378016057410587	1.0034482725761031	0.0702	1.6443001378331215	0.8301233862365692	0.1076	1.310945488633388	1.3896683314043679	-0.01275	1.1275304717633858	1.2150708706009248	0.0702	1.0399407546682817	1.0214070030984774	0.1076
93	3.1087570621468927	1.2966939640835977	0.9268580964407934	0.0301	1.3877717675369408	0.8989038852705897	0.0301	1.3369401641636522	0.5717175330953291	0.129	1.3224096067751137	0.5665339787843274	0.023	1.313232664170006	0.5668772877675603	0.2179	1.344059564106021	0.5527551149851395	0.1804	1.303371198252237	0.5761758643006047	-0.0119	1.2023951683120184	0.9471368061825172	0.0301	1.1098181366345798	0.5926853411668924	0.129	1.0033082800274415	0.27119068240005156	0.023	1.0132500727610412	0.20416773734685392	0.2179	0.9562718706538718	0.21294372541884324	0.1804	0.9830490510240125	0.20548239893549905	-0.0119	1.4889407283508893	1.3757843573170832	0.0008	1.6044770220678222	1.5242454818765754	0.0655	1.5641862706218488	1.4276075087832276	0.1076	1.6107342408613694	1.2704841598563006	-0.01275	1.6295381993630889	1.0054065948045479	0.0702	1.642370312529373	0.8282317866496203	0.1076	1.3039749250453398	1.3899027475831434	-0.01275	1.1193713102714136	1.2186840809578998	0.0702	1.0392117623324246	1.0236428519704253	0.1076
94	3.142184557438795	1.2950504051201928	0.9302167790393555	0.0301	1.3857534278958583	0.9014166009134309	0.0301	1.3381454863125612	0.5747917325395747	0.129	1.323407743157681	0.572828794515379	0.023	1.314746408282692	0.5704969525309841	0.2179	1.344862700925318	0.5518951611107605	0.1804	1.3064474853492485	0.5877261634873836	-0.0119	1.200411697354339	0.9475147684230761	0.0301	1.1104879959618024	0.5924367026221877	0.129	1.0055989603654951	0.2708966740956122	0.023	1.0139262598271899	0.209571171176649	0.2179	0.9583623467141261	0.21589954582771617	0.1804	0.9857628906079999	0.2080377714232737	-0.0119	1.4812524284929676	1.377247858360259	0.0008	1.5980869766641548	1.5234408202105219	0.0655	1.5587614379603028	1.4264747869481291	0.1076	1.6005781431766335	1.2740985929079323	-0.01275	1.6219720338346453	1.009040575549089	0.0702	1.641767661005148	0.8263862120312134	0.1076	1.2969550637002418	1.3906958525287336	-0.01275	1.1082001229486118	1.2247756790849877	0.0702	1.037195384541852	1.0261696455265157	0.1076
95	3.175612052730697	1.293380145980885	0.932637656178524	0.0301	1.3831246661501768	0.9031534310142963	0.0301	1.3389641237286773	0.583728713635754	0.129	1.3243287112727844	0.5773603518317533	0.023	1.3159068906510443	0.5735012734735192	0.2179	1.3470443225457818	0.5476985363673568	0.1804	1.3098548306361462	0.5956324141521993	-0.0119	1.1974970599405583	0.948314080437436	0.0301	1.1108607112268518	0.5926287453770976	0.129	1.006335742895385	0.2712747042362333	0.023	1.0125435794755848	0.21222228710638358	0.2179	0.958489207308434	0.2171951343047692	0.1804	0.98734750389791	0.2095547739540193	-0.0119	1.4708299638083633	1.3789688880364006	0.0008	1.592730201383707	1.5227531400791268	0.0655	1.5547340011543354	1.4241631931176495	0.1076	1.588886508669558	1.2770801863979617	-0.01275	1.61406504716565	1.0143911970123276	0.0702	1.6406824307942773	0.825665825208175	0.1076	1.2879439473054275	1.392363455888632	-0.01275	1.0955537460619253	1.2339822700639291	0.0702	1.0326822818378263	1.0287805168140687	0.1076
96	3.209039548022599	1.2906567797376427	0.9342397245310785	0.0301	1.3804582765539721	0.904441159136079	0.0301	1.3380723563722332	0.5934713381894191	0.129	1.3251838103826044	0.5802598746645077	0.023	1.3161705424140888	0.5726733897843849	0.2179	1.3510013239385392	0.5393551475013482	0.1804	1.3121052397018906	0.5992332433147763	-0.0119	1.1949558677385612	0.9488264439170986	0.0301	1.1110384661997068	0.5934495393131831	0.129	1.0063439485693764	0.27148423786440934	0.023	1.0126166923685276	0.21184346364671955	0.2179	0.959047416860972	0.21706051526141604	0.1804	0.9879347470628245	0.21005785755647502	-0.0119	1.4607881706330106	1.3814972370266643	0.0008	1.5862070657754952	1.5238357386817056	0.0655	1.5499072784644556	1.4235951039196428	0.1076	1.5775140380460848	1.2795851393914768	-0.01275	1.6064421393436747	1.0184504896819606	0.0702	1.6382164289943673	0.8258415926748516	0.1076	1.2775445146853448	1.394682833259524	-0.01275	1.084446511475425	1.2441356696200774	0.0702	1.0274378677309484	1.0337309248198432	0.1076
